<svg xmlns="http://www.w3.org/2000/svg" version="1.0" preserveAspectRatio="xMidYMid meet" width="45" height="35" viewBox="125.07 138.1 249.67 223.71">

<g transform="translate(0.000000,500.000000) scale(0.100000,-0.100000)" fill="#542437" stroke="none">
<path d="M2872 3585 c-116 -60 -231 -91 -568 -149 -65 -11 -138 -34 -162 -52 -2 -1 12 -25 30 -53 l33 -51 65 0 c36 0 97 -7 135 -14 39 -8 71 -13 73 -11 7 6 -107 48 -165 60 -36 8 -67 15 -69 18 -2 2 33 10 79 17 107 16 329 8 417 -15 232 -62 423 -222 527 -441 20 -41 34 -77 31 -79 -3 -3 -19 17 -37 45 -114 175 -301 321 -480 374 -66 19 -101 20 -48 1 159 -59 293 -171 351 -296 19 -41 38 -92 42 -114 l6 -40 -37 60 c-40 66 -79 110 -140 158 l-40 32 37 -51 c141 -193 182 -487 114 -819 -11 -57 -12 -51 -13 110 0 156 -3 180 -30 285 -34 129 -74 223 -137 319 -48 75 -146 190 -173 204 -15 8 -14 5 3 -14 20 -22 64 -101 64 -114 0 -2 -21 11 -47 31 -97 74 -304 157 -448 179 -80 12 -82 13 -99 58 -25 66 -93 152 -207 262 l-104 100 -3 -95 c-4 -109 10 -188 44 -245 27 -47 77 -96 119 -118 21 -11 24 -16 12 -17 -29 0 -90 29 -120 58 -28 27 -29 27 -43 7 -21 -27 -84 -159 -84 -175 0 -8 11 -5 35 9 90 53 -19 -46 -145 -131 l-25 -17 33 -7 c29 -6 46 -24 22 -24 -20 0 -23 -50 -5 -70 10 -11 14 -20 8 -20 -5 0 -18 9 -28 20 -10 11 -22 17 -28 13 -5 -3 -32 -53 -60 -112 -28 -58 -67 -124 -88 -146 -42 -46 -141 -186 -135 -192 2 -3 30 9 62 25 33 16 88 40 124 53 l65 23 53 108 c29 60 78 145 108 190 30 45 46 74 36 65 -25 -23 -32 -21 -32 7 0 14 -5 28 -10 31 -17 10 -11 25 10 25 51 0 118 35 181 95 83 78 219 169 233 155 5 -5 8 -11 5 -12 -2 -2 -43 -29 -91 -62 -185 -123 -373 -372 -465 -615 l-24 -63 44 6 c34 5 47 3 57 -9 23 -28 132 -82 220 -110 118 -38 207 -39 276 -3 93 49 145 132 144 233 -1 11 2 44 6 74 11 86 -11 178 -71 299 -46 92 -50 102 -24 72 43 -49 94 -144 119 -219 17 -52 21 -84 19 -163 -3 -96 -2 -98 28 -136 43 -53 99 -167 117 -239 9 -33 21 -107 28 -164 l12 -104 14 70 c22 112 11 327 -23 439 -55 188 -139 348 -267 510 -63 80 -67 87 -32 59 64 -50 187 -184 244 -264 120 -169 179 -338 187 -535 10 -249 -55 -465 -211 -699 -70 -104 -73 -102 61 -40 122 57 269 161 364 256 178 179 281 383 324 639 l13 75 1 -71 c2 -155 -54 -372 -140 -541 l-47 -92 39 31 c106 86 214 287 249 466 16 79 30 64 30 -33 0 -139 -56 -321 -151 -492 l-49 -88 79 82 c167 173 282 391 336 633 22 98 31 376 16 465 -7 37 -10 69 -8 72 2 2 26 -1 52 -7 26 -6 49 -9 52 -7 9 10 -161 248 -216 302 -33 33 -61 62 -61 65 0 3 21 13 46 24 56 23 150 109 183 167 21 38 21 41 5 34 -115 -47 -272 -75 -423 -74 l-116 0 30 22 c39 28 97 91 136 145 l31 44 -49 -26 c-86 -43 -198 -66 -325 -66 -62 0 -122 3 -133 6 -19 5 -18 8 17 45 38 40 86 120 71 118 -5 0 -36 -15 -71 -34z"/>
<path d="M1575 2374 c-22 -8 -91 -40 -154 -71 -99 -50 -118 -64 -143 -102 -44 -71 -35 -133 28 -183 12 -10 24 -30 27 -45 12 -61 66 -105 144 -118 41 -6 44 -5 60 26 22 39 92 119 105 119 5 0 -4 -17 -20 -37 -38 -49 -64 -101 -57 -113 3 -6 38 -10 76 -10 67 0 70 1 79 28 6 15 16 38 24 52 18 33 213 190 282 227 l56 30 -57 11 c-65 13 -60 15 -180 -63 -73 -48 -83 -52 -120 -46 l-40 7 36 7 c31 6 168 97 180 120 2 4 -25 21 -61 38 -36 17 -80 42 -98 55 l-32 25 -38 -22 c-20 -12 -60 -42 -89 -66 -73 -62 -77 -53 -8 18 59 60 50 64 -25 12 -24 -17 -25 -17 -11 2 8 11 30 36 49 57 43 46 39 59 -13 42z m-221 -216 c21 -29 20 -65 -3 -107 -18 -33 -19 -34 -29 -14 -15 28 -11 143 5 143 6 0 19 -10 27 -22z m56 -58 c0 -31 -41 -111 -48 -92 -2 7 6 32 18 57 12 25 19 52 16 61 -3 8 -2 12 4 9 6 -3 10 -19 10 -35z"/>
</g>
</svg>